PathFileType	4	(X/Y/Z)	D:\TRACE\v60_Jaco2_6-2-23\JustBodyDRS_Motion3_3-v60.trc
DataRate	CameraRate	NumFrames	NumMarkers	Units	OrigDataRate	OrigDataStartFrame	OrigNumFrames
100.00	100.00	      31	9	mm	100.00	6126	      7000
Frame#	Time	front left toe			Front right toe			aft left toe			aft right toe			Arm			FL body			FR body			AL Body			AR Body			
		X1	Y1	Z1	X2	Y2	Z2	X3	Y3	Z3	X4	Y4	Z4	X5	Y5	Z5	X6	Y6	Z6	X7	Y7	Z7	X8	Y8	Z8	X9	Y9	Z9	

6126	61.250	-208.68932	97.80459	-168.24800	175.95618	27.03049	-167.83340	-199.94144	-4.39627	458.42468	158.15994	61.63371	451.47943	-1.44729	1223.00732	-125.76762	-94.05436	602.88593	-288.48166	64.53489	600.94086	-290.01691	-79.98631	517.89294	652.15729	73.80664	506.06207	649.00745	
6127	61.260	-208.44713	109.91621	-168.63028	175.96715	26.82461	-167.59656	-200.41454	-4.51134	458.35007	160.54726	73.52239	451.19748	-0.34118	1222.56213	-125.50797	-93.60311	602.47040	-288.42587	64.83198	600.36932	-289.56528	-80.27655	517.33813	652.10840	73.31576	505.65378	649.28284	
6128	61.270	-207.74367	121.05951	-168.59627	175.91711	26.63944	-167.39612	-200.28064	-4.96645	458.26892	161.46336	84.37399	450.94879	1.20100	1222.19580	-124.63024	-93.04009	602.11273	-288.56229	65.33530	599.83740	-289.37589	-80.33315	517.21466	652.20886	73.17788	505.53027	649.48932	
6129	61.280	-205.96642	130.94922	-168.64644	175.76978	26.56122	-167.16281	-201.01445	-4.41381	458.40030	162.03517	94.80993	451.46942	2.30488	1222.15417	-124.39206	-92.33378	601.74219	-288.63370	66.46518	599.44684	-289.66446	-80.47591	517.20947	652.22791	73.34982	505.45261	649.51862	
6130	61.290	-203.88553	139.83191	-168.69707	175.54509	26.53230	-167.14478	-201.27878	-4.32589	458.33154	163.44359	104.15923	451.89325	3.15104	1221.81812	-124.47595	-91.62308	601.41681	-288.72031	67.06640	599.05121	-289.74396	-80.42777	517.35577	652.19025	73.44608	505.37375	649.56763	
6131	61.300	-202.18372	147.42870	-168.90422	175.27321	26.65309	-167.13397	-201.55937	-4.23075	458.29282	164.89201	111.90852	451.96423	3.62881	1221.54321	-125.14614	-90.69550	601.04480	-288.68063	67.52734	598.43402	-289.00659	-80.47224	517.39771	652.22235	73.51976	505.24539	649.56982	
6132	61.310	-200.98839	152.80400	-168.83498	175.07634	26.58546	-167.08838	-201.81071	-4.14561	458.30380	167.14822	115.15065	452.39853	4.37470	1220.94580	-125.98194	-89.77674	600.68579	-288.66779	68.95959	597.97308	-289.51285	-80.49957	517.44366	652.14624	73.73434	505.17114	649.63300	
6133	61.320	-199.77087	154.70630	-168.43181	175.10223	26.37894	-167.02383	-201.97612	-4.06461	458.29837	171.01935	116.65205	452.64084	5.18474	1220.42542	-126.83851	-88.72351	600.22931	-289.00098	69.60204	597.76343	-289.55099	-80.44410	517.55579	651.99976	74.10248	505.33932	649.71558	
6134	61.330	-197.95427	153.56882	-167.61267	175.06230	25.97771	-167.06476	-202.05821	-3.99077	458.28607	174.67674	116.14824	452.95059	6.47688	1219.90479	-127.28035	-87.74812	599.85858	-289.46362	70.67308	597.12378	-289.34451	-80.37863	517.64532	651.82574	74.23758	505.55859	649.76697	
6135	61.340	-196.08182	149.30496	-166.42114	175.16243	25.62843	-166.99138	-202.27855	-3.85734	458.20032	177.53123	112.39024	453.51163	7.84474	1219.68140	-127.76199	-86.57121	599.49896	-289.62543	72.09643	596.48932	-289.26782	-80.32120	517.87488	651.64606	74.26083	505.71033	649.77808	
6136	61.350	-192.79156	143.35658	-165.95648	175.21967	25.43039	-166.91928	-202.41847	-3.62644	458.04599	180.19312	107.38226	453.92798	8.95485	1219.54749	-127.94145	-85.35398	599.08496	-290.04889	73.12457	596.29175	-289.93329	-80.15865	518.24377	651.26245	74.30446	505.89340	649.66205	
6137	61.360	-189.49498	136.76932	-165.41905	175.29510	25.24922	-166.77864	-202.53409	-3.40405	458.00363	183.09325	101.42832	454.35464	10.11852	1219.55859	-128.43172	-84.12801	598.77423	-290.27454	74.51209	596.14862	-289.99768	-79.48843	518.45319	650.70001	75.54157	506.27930	649.39856	
6138	61.370	-185.59023	129.09764	-165.59094	175.31560	25.16230	-166.72224	-202.70549	-3.22470	457.99014	185.96848	94.10474	454.69177	10.64817	1219.25586	-129.19962	-83.02579	598.46436	-290.45621	75.23372	595.81696	-289.95221	-78.83392	518.57123	650.80798	76.36800	506.55093	649.27319	
6139	61.380	-181.86270	120.80934	-165.85222	175.18938	24.93288	-166.94078	-202.28500	-3.47382	457.80515	189.45486	85.77538	454.95660	11.62603	1218.91675	-129.86485	-81.78310	598.26379	-290.69907	76.33876	595.76544	-290.26752	-78.06994	518.80872	650.53003	76.92431	506.78534	649.24286	
6140	61.390	-179.11703	111.58611	-166.22803	175.03009	24.65704	-167.20222	-202.22343	-3.18880	457.71603	193.24684	76.31847	455.16812	12.06972	1218.77454	-130.64830	-80.69514	598.04803	-291.09274	78.03701	595.51398	-290.65286	-77.34664	519.14520	650.25116	77.64723	506.98969	649.06036	
6141	61.400	-176.58424	101.70097	-165.98927	175.04414	24.46549	-167.31909	-202.52742	-3.03599	458.07581	196.54872	65.94667	455.67856	12.62852	1218.81946	-131.10591	-79.61636	597.73389	-291.32144	79.30175	595.29987	-290.88065	-75.95100	519.14557	649.81329	78.67388	507.40909	648.88892	
6142	61.410	-174.44807	91.10263	-165.01900	175.08588	24.34985	-167.36264	-202.30399	-2.48678	457.47107	200.87044	55.17444	456.51224	13.17958	1218.76270	-131.56471	-78.41666	597.55194	-291.56036	80.08070	595.21649	-291.13760	-75.20174	519.48230	650.12830	79.43275	507.71201	648.68646	
6143	61.420	-171.96648	80.87072	-163.89473	175.14532	24.22575	-167.41362	-202.29126	-2.22003	457.42960	204.72403	44.76066	457.27591	13.95136	1218.60632	-131.87642	-77.11370	597.18140	-291.62311	81.04937	595.08862	-291.12411	-73.98115	519.51257	649.83514	79.51517	507.79626	648.57574	
6144	61.430	-169.47328	69.96376	-162.25629	175.23318	23.97479	-167.45152	-202.40369	-2.01335	457.36096	207.75188	34.69954	457.58099	14.62339	1218.48438	-132.01468	-76.12431	596.94696	-291.73248	82.28690	595.00012	-291.09903	-72.79733	519.59015	649.92230	81.04195	508.05029	648.57672	
6145	61.440	-167.39006	59.37154	-160.48929	175.35329	23.77597	-167.35168	-202.40260	-1.80457	457.34024	211.32280	25.21810	458.02151	15.22654	1218.42249	-132.32448	-75.06673	596.83795	-291.93027	83.13290	595.04730	-291.24475	-71.37865	519.64880	649.71039	83.40066	508.46667	648.59650	
6146	61.450	-165.27943	49.27251	-158.68066	175.61732	23.78529	-167.43498	-202.71164	-1.38365	457.33405	214.49892	16.57099	458.43121	15.47963	1218.41895	-132.61864	-73.90767	596.53497	-291.76254	84.91555	594.90491	-291.30853	-70.41719	519.58258	649.76660	84.03068	508.68939	648.62982	
6147	61.460	-163.94331	40.11309	-157.04918	175.53783	23.63268	-167.67842	-202.77206	-1.14208	457.37503	216.79552	8.82116	458.70221	15.99432	1218.14685	-132.91000	-72.72025	596.19812	-291.44431	85.63141	594.81262	-291.38971	-68.96254	519.92755	650.21960	86.07545	509.00781	648.72046	
6148	61.470	-162.80241	32.25776	-155.48576	175.42078	23.44157	-168.02234	-202.76448	-0.91959	457.38382	217.33475	1.25673	459.47174	16.23631	1217.89954	-133.08209	-71.73424	595.88013	-291.40240	86.68685	594.37054	-290.66803	-67.61263	519.77557	650.40442	87.16998	509.04532	648.84979	
6149	61.480	-162.14095	25.95906	-154.05627	175.34448	23.15333	-168.18832	-202.64432	-0.56328	457.46329	218.51483	1.59014	457.01648	16.29149	1217.69177	-133.12373	-70.58536	595.57367	-291.28647	87.90401	594.19818	-290.34869	-65.85548	519.57397	650.45978	88.71496	509.08203	649.13300	
6150	61.490	-162.40285	24.75189	-155.33047	175.40475	22.78375	-168.29585	-202.02939	-0.32370	457.28241	219.08727	-1.64168	458.51642	16.48495	1217.60291	-132.98775	-69.30471	594.85010	-290.85580	89.41296	593.99359	-290.47522	-64.76520	520.24487	650.79303	90.16781	510.09930	649.53473	
6151	61.500	-163.44139	24.94181	-156.63699	175.25879	22.69421	-168.08070	-201.72192	0.14371	457.22348	219.36716	-0.25481	457.61133	16.66449	1217.55615	-132.92467	-68.25562	594.80292	-290.63010	90.73804	594.09100	-290.04453	-63.41151	521.41656	651.53149	91.07089	511.38278	650.00037	
6152	61.510	-163.53241	22.63155	-155.59456	175.37332	23.40676	-167.63666	-202.10698	1.53040	457.53003	218.89519	-1.43206	459.06750	17.22972	1217.91370	-133.15445	-66.84112	595.49158	-289.71649	91.73372	594.84534	-289.70615	-62.40783	522.16339	651.69879	92.32765	511.89548	650.72736	
6153	61.520	-162.95441	23.15486	-154.99272	176.21922	26.09964	-167.86716	-200.55396	2.84332	456.47806	219.03630	-1.64364	458.60086	17.98316	1218.99353	-133.37952	-65.71433	597.03198	-289.30157	92.46706	595.91528	-289.12827	-61.20344	522.09583	651.85797	93.17333	512.04987	651.01361	
6154	61.530	-162.97511	24.10921	-155.70419	172.43781	29.86295	-165.58055	-196.46611	5.34479	457.89246	219.46602	-2.23660	458.26242	19.42299	1220.16748	-132.87679	-64.85417	598.21393	-289.42429	93.82191	597.42572	-289.08008	-60.64992	521.62311	652.16199	94.32671	511.59241	651.09784	
6155	61.540	-162.77054	23.63745	-156.15121	172.13858	36.14325	-162.08151	-192.05197	11.21692	459.29956	219.48567	-2.21523	458.08768	21.49615	1221.15820	-131.15852	-64.14719	599.06836	-289.17203	94.05449	598.17358	-288.75894	-60.04145	521.30579	652.27057	94.92088	511.48257	651.04431	
6156	61.550	-163.12776	23.06040	-156.28552	171.14282	45.69340	-161.15634	-186.44725	19.35381	459.71478	219.28273	-2.17350	457.96054	23.91846	1221.74512	-129.36531	-63.53863	599.49854	-289.12939	94.39141	598.64380	-288.54684	-59.06572	521.46344	652.42621	95.53658	511.42929	650.98773	
